<svg id="Capa_1" enable-background="new 0 0 512 512" height="512" viewBox="0 0 512 512" width="512" xmlns="http://www.w3.org/2000/svg"><g><path d="m241 195.038h30v30h-30z" transform="matrix(.707 -.707 .707 .707 -73.539 242.538)"/><path d="m195.038 241h30v30h-30z" transform="matrix(.707 -.707 .707 .707 -119.501 223.5)"/><path d="m286.962 241h30v30h-30z" transform="matrix(.707 -.707 .707 .707 -92.577 288.5)"/><path d="m241 286.962h30v30h-30z" transform="matrix(.707 -.707 .707 .707 -138.539 269.462)"/><path d="m415.099 256 63.951-63.951c21.248-21.248 32.95-49.499 32.95-79.549s-11.702-58.301-32.951-79.549c-21.248-21.249-49.499-32.951-79.549-32.951s-58.301 11.702-79.549 32.951l-63.951 63.95-63.951-63.951c-21.248-21.248-49.499-32.95-79.549-32.95s-58.301 11.702-79.549 32.951c-21.249 21.248-32.951 49.499-32.951 79.549s11.702 58.301 32.951 79.549l63.95 63.951-63.951 63.951c-21.248 21.248-32.95 49.499-32.95 79.549s11.702 58.301 32.951 79.549c21.248 21.249 49.499 32.951 79.549 32.951s58.301-11.702 79.549-32.951l63.951-63.95 63.951 63.951c21.248 21.248 49.499 32.95 79.549 32.95s58.301-11.702 79.549-32.951c21.249-21.248 32.951-49.499 32.951-79.549s-11.702-58.301-32.951-79.549zm-73.935-201.836c16.083-16.083 37.21-24.125 58.336-24.125s42.253 8.042 58.336 24.125c32.167 32.167 32.167 84.506 0 116.673l-63.951 63.951-116.672-116.674zm31.509 201.836-116.673 116.673-116.673-116.673 116.673-116.673zm-318.509-85.164c-32.167-32.167-32.167-84.506 0-116.673 16.083-16.083 37.21-24.125 58.336-24.125s42.253 8.042 58.336 24.125l63.951 63.951-116.673 116.673zm116.672 287c-32.167 32.166-84.506 32.166-116.673 0-32.167-32.167-32.167-84.506 0-116.673l63.951-63.951 116.673 116.673zm287 0c-32.167 32.166-84.506 32.166-116.673 0l-63.951-63.951 116.673-116.673 63.951 63.951c32.167 32.168 32.167 84.506 0 116.673z"/></g></svg>