<svg id="treatment" enable-background="new 0 0 300 300" height="512" viewBox="0 0 300 300" width="512" xmlns="http://www.w3.org/2000/svg"><g><path d="m216.506 67.996c.781.781 1.805 1.172 2.828 1.172s2.047-.391 2.828-1.172l2.828-2.828 2.828 2.828c.781.781 1.805 1.172 2.828 1.172s2.047-.391 2.828-1.172c1.562-1.562 1.562-4.094 0-5.656l-2.828-2.828 2.828-2.828c1.562-1.562 1.562-4.094 0-5.656s-4.094-1.562-5.656 0l-2.828 2.828-2.828-2.828c-1.562-1.562-4.094-1.562-5.656 0s-1.562 4.094 0 5.656l2.828 2.828-2.828 2.828c-1.563 1.562-1.563 4.094 0 5.656z"/><path d="m57.156 85.664c6.51-1.975 10.201-8.877 8.229-15.387-1.975-6.509-8.877-10.203-15.385-8.228-3.154.955-5.748 3.082-7.303 5.988s-1.883 6.244-.928 9.398c1.613 5.322 6.52 8.76 11.814 8.76 1.183 0 2.386-.172 3.573-.531zm-7.73-10.549c-.336-1.109-.221-2.283.326-3.305s1.457-1.77 2.566-2.105c.418-.127.84-.188 1.256-.188 1.861 0 3.586 1.209 4.154 3.08.693 2.289-.604 4.717-2.893 5.41-2.29.7-4.716-.601-5.409-2.892z"/><path d="m272.367 146.434-17.604-17.604c-1.562-1.563-4.094-1.563-5.656 0-1.562 1.562-1.562 4.094 0 5.656l5.638 5.638-11.908 11.987-10.078-10.078c-1.562-1.562-4.094-1.562-5.656 0l-46.539 46.537-31.631-14.386c.029-1.32.051-3.437.051-3.437 15.278-7.321 26.943-20.839 31.658-37.243 2.6.102 5.105-.646 7.523-2.152 3.713-2.312 6.223-6.082 6.717-10.082.492-4.008-.746-8.027-3.402-11.029-1.75-1.98-4.008-3.404-6.49-4.145v-30.584c0-12.33-6.957-23.125-19.592-30.398-19.494-11.225-48.25-11.527-66.885-.709-9.862 5.726-21.603 17.048-21.523 38.462.008 2.17 0 23.219 0 23.219-2.285.676-4.367 1.936-6.074 3.703-2.662 2.758-4.053 6.391-3.918 10.232.154 4.279 2.582 8.41 6.496 11.053 2.475 1.67 5.039 2.5 7.648 2.439 4.183 15.286 14.331 28.112 27.868 35.902.023 2.125.042 3.668.056 4.759l-31.957 14.525c-14.652 6.66-24.119 21.541-24.119 37.91v32.902c0 2.209 1.791 4 4 4h144c2.209 0 4-1.791 4-4v-31.85c1.013-.64 1.981-1.374 2.863-2.256l51.311-51.312c1.562-1.562 1.562-4.094 0-5.656l-10.67-10.67 11.908-11.987 6.309 6.309c.781.781 1.805 1.172 2.828 1.172s2.047-.391 2.828-1.172c1.563-1.562 1.563-4.093 0-5.655zm-42.435 4.084 7.269 7.269-16.294 16.402-7.323-7.323zm-52.81 67.479 6.079 6.079-1.679 1.678-6.078-6.078zm-74.591-166.675c16.35-9.496 41.66-9.188 58.877.723 7.107 4.094 15.582 11.486 15.582 23.467v21.888c-12.062 8.818-25.695 12.111-38.584 9.285-11.354-2.494-20.766-9.545-25.822-19.346-.586-1.135-1.68-1.922-2.941-2.119-.205-.031-.41-.047-.613-.047-1.055 0-2.076.416-2.832 1.174-5.166 5.178-12.711 8.291-21.107 8.801-.008-1.809-.027-3.764-.047-5.768-.021-2.166-.045-4.389-.053-6.545-.067-17.589 9.501-26.845 17.54-31.513zm-14.451 76.824c-.23-1.123-.93-2.094-1.924-2.664-.992-.57-2.178-.691-3.27-.324-1.543.523-2.969.598-4.918-.715-1.773-1.199-2.914-3.004-2.975-4.707-.059-1.65.537-3.209 1.678-4.391 1.143-1.184 2.676-1.834 4.318-1.834 2.209 0 4-1.791 4-4v-6.351c8.69-.416 16.734-3.171 23.027-7.848 6.488 9.67 16.697 16.555 28.674 19.186 3.598.791 7.236 1.182 10.881 1.182 10.02 0 20.067-3.002 29.418-8.715v2.547c0 2.209 1.791 4 4 4 1.719 0 3.357.738 4.498 2.027 1.154 1.307 1.67 2.994 1.453 4.754-.199 1.625-1.324 3.221-3.004 4.268-1.686 1.049-3.111 1.215-4.928.574-1.078-.379-2.273-.285-3.277.277-1.002.559-1.717 1.521-1.961 2.643-3.898 17.883-17.117 32.492-34.496 38.125l-1.779.576c-4.895 1.584-10.113 1.65-14.68.182-17.686-5.696-30.997-20.559-34.735-38.792zm36.91 127.366h-36v-16c0-2.209-1.791-4-4-4s-4 1.791-4 4v16h-20v-28.902c0-13.24 7.627-25.262 19.43-30.629l16.857-7.662 27.713 44.34zm-20.366-70.533 10.144-4.61c1.482-.672 2.406-2.227 2.34-3.854-.012-.307-.032-1.679-.052-3.265 1.106.431 2.172.935 3.31 1.302 3.029.975 6.184 1.461 9.377 1.461 3.395 0 6.834-.551 10.219-1.646l.978-.317c-.022 1.067-.046 2.115-.06 2.373-.129 1.674.805 3.252 2.334 3.945l10.144 4.61-24.366 38.985zm92.366 70.533h-64v-22.853l27.713-44.34 13.997 6.362c-3.904 4.824-4.73 11.304-2.382 16.807l-5.359 5.36c-1.562 1.562-1.562 4.094 0 5.656l2.985 2.985-10.887 10.96c-1.557 1.566-1.549 4.1.02 5.656.779.775 1.799 1.162 2.818 1.162 1.027 0 2.057-.395 2.838-1.182l10.868-10.94 3.093 3.093c.781.781 1.805 1.172 2.828 1.172s2.047-.391 2.828-1.172l5.36-5.359c2.067.882 4.269 1.349 6.482 1.349.268 0 .531-.063.799-.076v25.36zm5.207-35.762c-3.312 3.307-8.701 3.311-12.01 0l-8.74-8.74c-3.311-3.311-3.311-8.697 0-12.01l26.48-26.479 20.749 20.749zm48.483-48.484-16.347 16.348-7.77-7.77 16.294-16.402z"/><path d="m30.99 196.982c-2.501 0-4.53 2.028-4.53 4.53 0 2.501 2.028 4.529 4.53 4.529s4.53-2.028 4.53-4.529c0-2.502-2.028-4.53-4.53-4.53z"/><path d="m54.461 161.512c0 2.501 2.028 4.529 4.53 4.529s4.53-2.028 4.53-4.529c0-2.502-2.028-4.53-4.53-4.53s-4.53 2.028-4.53 4.53z"/><circle cx="150.99" cy="125.512" r="4"/><circle cx="110.99" cy="125.512" r="4"/></g></svg>